<svg xmlns="http://www.w3.org/2000/svg" viewBox="0 0 1200 600" role="img" aria-labelledby="title desc">
  <title id="title">World map placeholder</title>
  <desc id="desc">Stylized world map placeholder for trip hero images.</desc>
  <rect width="1200" height="600" fill="#e6edf5" />
  <rect x="40" y="40" width="1120" height="520" rx="40" fill="#d7e2ee" />
  <g fill="#b7c6d8">
    <path d="M180 170l90-40 110 20 60 60-30 70-120 20-90-30-40-80z" />
    <path d="M470 210l120-40 130 10 90 70-30 90-140 40-140-30-40-70z" />
    <path d="M780 190l120-30 120 20 60 60-10 90-140 40-110-30-40-70z" />
    <path d="M280 360l120-30 90 20 40 50-20 60-90 30-110-20-40-40z" />
    <path d="M620 360l140-40 110 30 60 70-20 80-150 40-120-40-40-60z" />
  </g>
  <g fill="none" stroke="#a8b8cb" stroke-width="6" opacity="0.5">
    <path d="M80 300h1040" />
    <path d="M120 200c180 80 340 80 520 0s340-80 520 0" />
    <path d="M120 400c180-80 340-80 520 0s340 80 520 0" />
  </g>
</svg>
